<svg width="270" height="60" viewBox="0 0 270 60" fill="none" xmlns="http://www.w3.org/2000/svg">
<g clip-path="url(#clip0)">
<path d="M93.24 13.92C92.76 12.6 92.04 12.24 90.6 12.24H86.52C85.08 12.24 84.36 12.6 83.88 14.04L71.4 47.64C70.92 49.08 71.28 49.8 72.84 49.8H76.44C79.08 49.8 79.8 49.32 80.28 47.88L81.96 42.96H94.92L96.6 47.88C97.08 49.44 97.92 49.8 100.56 49.8H104.4C105.96 49.8 106.32 49.08 105.84 47.64L93.24 13.92ZM84.24 35.88L87 27.6C88.32 23.88 88.2 21.12 88.2 21.12H88.68C88.68 21.12 88.8 23.76 90 27.6L92.76 35.76C92.76 35.88 84.24 35.88 84.24 35.88ZM129.24 12.24H104.16C102.48 12.24 102 12.72 102 14.4V18C102 19.56 102.48 20.16 104.16 20.16H112.44V47.64C112.44 49.32 112.92 49.8 114.6 49.8H118.8C120.48 49.8 120.96 49.32 120.96 47.64V20.04H129.12C130.8 20.04 131.28 19.56 131.28 17.88V14.4C131.4 12.84 130.8 12.24 129.24 12.24ZM151.68 26.04H143.16V19.92H159C160.56 19.92 161.16 19.32 161.16 17.76V14.4C161.16 12.72 160.56 12.24 159 12.24H136.8C135.24 12.24 134.64 12.72 134.64 14.4V47.64C134.64 49.2 135.24 49.68 136.8 49.68H151.8C159.12 49.68 163.8 45.12 163.8 37.92C163.8 30.48 159 26.04 151.68 26.04ZM150.48 42.12H143.16V33.72H150.48C153.24 33.72 154.8 35.4 154.8 37.92C154.92 40.32 153.36 42.12 150.48 42.12Z" fill="#2A2C29"/>
<path d="M180.24 56.28H180.84V5.76H180.24V56.28ZM199.8 20.16C199.32 20.16 198.48 19.92 198 19.56L197.64 20.04C198 20.52 199.08 20.76 199.8 20.76C201.12 20.76 202.08 20.16 202.08 19.08C202.08 18.48 201.72 17.88 200.88 17.76C201.6 17.52 201.84 16.92 201.84 16.44C201.84 15.48 201.12 15 199.8 15C198.96 15 198.12 15.24 197.64 15.72L197.88 16.2C198.24 15.84 198.84 15.6 199.68 15.6C200.52 15.6 201.12 15.96 201.12 16.56C201.12 17.16 200.64 17.64 199.92 17.64H199.2V18.12H200.16C201 18.12 201.48 18.48 201.48 19.08C201.48 19.8 200.76 20.16 199.8 20.16ZM228 15.12H227.4V20.76H228V15.12ZM242.52 17.28H239.64V18H242.52V17.28ZM232.08 20.64L229.08 17.76L231.84 15.12H231L228.24 17.88L231.12 20.76L232.08 20.64ZM208.08 15.96V20.64H208.68V15H208.08L204.36 19.68V15H203.76V20.64H204.36L208.08 15.96ZM190.56 17.76H194.76L196.08 20.76H196.8L192.96 12H192.36L188.52 20.76H189.24L190.56 17.76ZM192.72 12.84L194.52 17.04H190.92L192.72 12.84ZM217.56 20.64H218.16V15.72H220.44V15.12H215.28V15.72H217.56V20.64ZM235.32 15C233.52 15 232.32 16.2 232.32 17.88C232.32 19.56 233.52 20.76 235.32 20.76C237.12 20.76 238.32 19.56 238.32 17.88C238.32 16.2 237.12 15 235.32 15ZM235.32 20.16C234 20.16 233.04 19.2 233.04 17.88C233.04 16.56 234 15.6 235.32 15.6C236.64 15.6 237.6 16.56 237.6 17.88C237.6 19.2 236.76 20.16 235.32 20.16ZM212.4 15C211.68 15 211.08 15.24 210.6 15.48L210.72 15.96C211.2 15.72 211.68 15.48 212.28 15.48C213.72 15.48 213.72 16.32 213.72 17.64C213.24 17.28 212.64 17.16 212.16 17.16C210.96 17.16 210 17.76 210 18.96C210 20.04 210.72 20.64 211.68 20.64C212.76 20.64 213.24 20.16 213.6 19.68V20.52H214.2V17.04C214.44 15.84 213.96 15 212.4 15ZM213.84 19.32C213.48 19.68 213.12 20.16 212.16 20.16C211.44 20.16 210.96 19.8 210.96 19.08C210.96 18.24 211.68 17.88 212.52 17.88C213.12 17.88 213.6 18 213.96 18.36V19.32H213.84ZM226.08 19.92L225.72 19.44C225.36 19.92 224.64 20.16 223.92 20.16C222.6 20.16 221.64 19.32 221.64 17.88C221.64 16.56 222.72 15.6 223.8 15.6C224.4 15.6 225.12 15.72 225.6 16.2L225.96 15.72C225.48 15.24 224.64 15 223.8 15C222.24 15 221.04 16.32 221.04 17.88C221.04 19.68 222.24 20.76 224.04 20.76C224.76 20.76 225.6 20.52 226.08 19.92ZM235.68 29.04C234.96 29.04 234.36 29.28 233.88 29.52L234 30C234.48 29.76 234.96 29.52 235.56 29.52C237 29.52 237 30.36 237 31.68C236.52 31.32 235.92 31.2 235.44 31.2C234.24 31.2 233.28 31.8 233.28 33C233.28 34.08 234 34.68 234.96 34.68C236.04 34.68 236.52 34.2 236.88 33.72V34.56H237.48V31.2C237.72 29.88 237.24 29.04 235.68 29.04ZM237.12 33.36C236.76 33.72 236.4 34.2 235.44 34.2C234.72 34.2 234.24 33.84 234.24 33.12C234.24 32.28 234.96 31.92 235.8 31.92C236.4 31.92 236.88 32.04 237.24 32.4V33.36H237.12ZM226.56 29.16H225.72L222.96 31.92L225.84 34.8H226.68L223.68 31.92L226.56 29.16ZM243.84 31.56H240.24V29.16H239.64V34.8H240.24V32.28H243.84V34.8H244.44V29.16H243.84V31.56ZM229.92 29.04C228.12 29.04 227.04 30.36 227.04 31.92C227.04 33.72 228.24 34.8 230.04 34.8C230.76 34.8 231.6 34.56 232.08 33.96L231.84 33.48C231.48 33.84 230.76 34.2 230.04 34.2C228.72 34.2 227.76 33.36 227.76 32.04H232.44C232.44 31.92 232.44 31.68 232.44 31.56C232.44 30 231.36 29.04 229.92 29.04ZM227.76 31.56C227.88 30.48 228.6 29.64 229.8 29.64C231 29.64 231.72 30.36 231.72 31.56H227.76ZM258.84 33.84V29.16H258.24V34.8H258.84L262.56 30.12V34.8H263.16V29.16H262.56L258.84 33.84ZM269.4 29.16L265.68 33.84V29.16H265.08V34.8H265.68L269.4 30.12V34.8H270V29.16C270.12 29.16 269.4 29.16 269.4 29.16ZM267.72 27.84C268.68 27.84 269.4 27.12 269.4 26.28H268.8C268.8 26.88 268.32 27.36 267.72 27.36C267 27.36 266.52 26.88 266.52 26.28H265.92C265.92 27.12 266.52 27.84 267.72 27.84ZM191.88 34.68H192.6V26.64H195.84V26.04H188.64V26.64H191.88V34.68ZM248.88 34.2C247.56 34.2 246.6 33.36 246.6 31.92C246.6 30.6 247.68 29.64 248.76 29.64C249.36 29.64 250.08 29.76 250.56 30.24L250.92 29.76C250.44 29.28 249.6 29.04 248.76 29.04C247.2 29.04 246 30.36 246 31.92C246 33.72 247.2 34.8 249 34.8C249.84 34.8 250.68 34.44 251.16 33.84L250.8 33.36C250.32 33.96 249.6 34.2 248.88 34.2ZM256.8 29.16H255.96L253.2 31.92L256.08 34.8H256.92L253.92 31.92L256.8 29.16ZM252.24 34.68H252.84V29.04H252.24V34.68ZM217.56 29.04C215.76 29.04 214.56 30.24 214.56 31.92C214.56 33.6 215.76 34.8 217.56 34.8C219.36 34.8 220.56 33.6 220.56 31.92C220.56 30.24 219.36 29.04 217.56 29.04ZM217.56 34.2C216.24 34.2 215.28 33.24 215.28 31.92C215.28 30.6 216.24 29.64 217.56 29.64C218.88 29.64 219.84 30.6 219.84 31.92C219.84 33.24 218.88 34.2 217.56 34.2ZM213.48 31.92C213.48 30.24 212.28 29.04 210.48 29.04C208.68 29.04 207.48 30.24 207.48 31.92C207.48 33.6 208.68 34.8 210.48 34.8C212.28 34.8 213.48 33.6 213.48 31.92ZM208.32 31.92C208.32 30.6 209.28 29.64 210.6 29.64C211.92 29.64 212.88 30.6 212.88 31.92C212.88 33.24 211.92 34.2 210.6 34.2C209.28 34.2 208.32 33.24 208.32 31.92ZM222 34.68H222.6V29.04H222V34.68ZM206.28 34.68H207.12L204.84 31.8L207 29.04H206.28L204.48 31.32L202.68 29.04H201.84L204 31.8L201.72 34.68H202.44L204.36 32.16L206.28 34.68ZM199.8 34.68H200.4V29.04H199.8L196.08 33.72V29.04H195.48V34.68H196.08L199.8 30V34.68ZM213.84 43.2H213L210.24 45.96L213.12 48.84H213.96L210.96 45.96L213.84 43.2ZM198.72 43.08C198 43.08 197.4 43.32 196.92 43.56L197.04 44.04C197.52 43.8 198 43.56 198.6 43.56C200.04 43.56 200.04 44.4 200.04 45.72C199.56 45.36 198.96 45.24 198.48 45.24C197.28 45.24 196.32 45.84 196.32 47.04C196.32 48.12 197.04 48.72 198 48.72C199.08 48.72 199.56 48.24 199.92 47.76V48.6H200.52V45.12C200.76 43.92 200.28 43.08 198.72 43.08ZM200.16 47.4C199.8 47.76 199.44 48.24 198.48 48.24C197.76 48.24 197.28 47.88 197.28 47.16C197.28 46.32 198 45.96 198.84 45.96C199.44 45.96 199.92 46.08 200.28 46.44V47.4H200.16ZM209.28 48.72H209.88V43.2H209.28V48.72ZM206.88 45.6H203.28V43.2H202.68V48.84H203.28V46.32H206.88V48.84H207.48V43.2H206.88V45.6ZM192.12 43.56C191.76 43.56 191.16 43.56 190.68 43.68V40.68H194.76V40.08H189.96V48.84C190.44 48.84 191.16 48.84 191.88 48.84C193.92 48.84 195.24 47.88 195.24 46.08C195.24 44.52 194.16 43.56 192.12 43.56ZM192 48.12C191.52 48.12 191.04 48.12 190.68 48.12V44.28C191.16 44.16 191.76 44.16 192.12 44.16C193.8 44.16 194.64 44.88 194.64 46.08C194.52 47.4 193.68 48.12 192 48.12Z" fill="#2A2C29"/>
<path d="M49.92 0.119999H9.96C4.44 0.119999 0 4.56 0 10.08V50.04C0 55.56 4.44 60 9.96 60H49.92C55.44 60 59.88 55.56 59.88 50.04V10.08C59.88 4.56 55.44 0.119999 49.92 0.119999ZM56.76 48.96C56.64 49.08 56.52 49.08 56.4 49.08C48.72 44.4 39.6 41.76 30 41.76C20.4 41.76 11.28 44.4 3.48 49.08C3.36 49.2 3.12 49.08 3.12 48.96C3 48.84 3 48.6 3.24 48.6C10.2 43.2 16.32 36.36 20.88 28.2C25.56 20.16 28.44 11.52 29.64 2.76C29.64 2.64 29.76 2.52 30 2.52C30.12 2.52 30.24 2.64 30.36 2.76C31.56 11.52 34.44 20.16 39.12 28.2C43.8 36.24 49.8 43.08 56.88 48.48C56.88 48.6 56.88 48.84 56.76 48.96Z" fill="#FE5000"/>
</g>
<defs>
<clipPath id="clip0">
<rect width="270" height="60" fill="white"/>
</clipPath>
</defs>
</svg>
