<svg width="100" height="100" viewBox="0 0 100 100" fill="none" xmlns="http://www.w3.org/2000/svg">
<circle cx="50" cy="50" r="49.5" fill="white" stroke="url(#paint0_linear)"/>
<g clip-path="url(#clip0)">
<path d="M74.8995 67.5227L72.9175 60.6327C72.8703 60.4911 72.7759 60.3495 72.6815 60.2551C71.4545 56.527 68.4343 53.6483 64.6117 52.6573L64.0454 52.5629C63.196 52.3269 62.2521 52.6101 61.6386 53.318C59.5622 55.6775 56.9195 55.8663 54.1352 55.8663C51.3508 55.8663 48.7081 55.6775 46.6317 53.318C46.0182 52.6101 45.0743 52.3269 44.2249 52.5629L43.6586 52.7045C40.7799 53.4595 38.3259 55.3 36.7686 57.754H30.8224C30.7752 57.754 30.7752 57.754 30.7281 57.7068C30.7281 57.6596 30.6809 57.6124 30.6809 57.518L31.9078 53.1292C32.9933 49.6842 35.0697 48.646 39.1282 47.6077C39.3169 47.5606 39.4585 47.4662 39.5529 47.3718C39.8833 47.6549 40.2608 47.8909 40.6383 48.0797C40.7799 48.1741 40.9215 48.1741 41.063 48.1741C41.3934 48.1741 41.7237 47.9853 41.9125 47.6549C42.1485 47.183 41.9597 46.6167 41.4878 46.3808C39.317 45.2482 37.7596 42.0391 37.7596 38.7357C37.7596 35.8098 40.1664 33.403 43.0923 33.403C43.6586 33.403 44.1777 33.4974 44.6968 33.639C44.1777 34.9132 43.8945 36.2817 43.8945 37.7447C43.8945 45.8145 48.7553 52.6101 54.5127 52.6101C60.1757 52.6101 65.178 45.6729 65.178 37.7447C65.178 31.8457 60.4117 27.0793 54.5127 27.0793C50.7845 27.0793 47.4811 29.0142 45.5935 31.9401C44.7912 31.6569 43.9417 31.5154 43.0923 31.5154C40.5439 31.5154 38.2787 32.8839 37.0046 34.9132C36.9102 34.8188 36.8158 34.7716 36.7214 34.7244C36.0135 34.3469 35.3057 34.2053 34.5034 34.2053C31.8607 34.1581 29.737 36.2817 29.737 38.9245C29.737 40.4346 30.1618 41.8504 30.8224 42.983C28.6516 43.5493 26.7168 44.3987 25.8201 47.2774L25.065 50.0145C24.9235 50.4864 25.0179 51.0056 25.301 51.3831C25.5842 51.8078 26.1033 52.0438 26.6224 52.0438H30.2561C30.2089 52.2325 30.1146 52.4213 30.0674 52.6101L28.8404 57.0461C28.6516 57.6596 28.7932 58.3203 29.2179 58.8394C29.5955 59.3585 30.1618 59.6416 30.8224 59.6416H35.8248C35.6832 59.972 35.5888 60.3023 35.4944 60.6327L33.5124 67.5699C33.3236 68.3721 33.4652 69.2216 33.9843 69.8822C34.5034 70.5429 35.2585 70.9205 36.0607 70.9205H64.3758H65.9803H72.3512C73.1534 70.9205 73.9557 70.5429 74.4276 69.8822C74.9467 69.2216 75.1355 68.3721 74.8995 67.5227ZM46.7261 33.7806C46.7732 33.7334 46.8204 33.6862 46.8676 33.5918C46.9148 33.5446 46.9148 33.4502 46.962 33.403C48.425 30.7603 51.2565 28.967 54.5127 28.967C58.4296 28.967 61.733 31.5626 62.8656 35.1019C61.2139 35.4323 59.4678 34.7716 58.4296 33.3558C58.0993 32.9311 57.533 32.8367 57.1082 33.1671C56.9195 33.3087 56.8251 33.4502 56.7779 33.639C56.7307 33.6862 56.7307 33.7334 56.6835 33.7806C55.3621 36.4705 50.9261 37.6031 45.8766 36.6121C46.0182 35.621 46.3013 34.6772 46.7261 33.7806ZM49.3688 38.8301C53.1441 38.8301 56.2588 37.6503 57.8633 35.4323C59.0431 36.4705 60.506 37.0368 62.0634 37.0368C62.4409 37.0368 62.8656 36.9896 63.2432 36.8952C63.2904 37.1784 63.2904 37.4143 63.2904 37.6975C63.2904 44.6347 59.1847 50.7224 54.5127 50.7224C50.0295 50.7224 46.1126 45.1066 45.7822 38.4997C47.0092 38.7357 48.2362 38.8301 49.3688 38.8301ZM26.9999 50.1561L27.6606 47.7965C28.2269 45.8617 29.4067 45.2954 31.7663 44.7291C31.9078 44.6819 32.0494 44.6347 32.1438 44.5403C32.3798 44.7291 32.5685 44.8706 32.8517 45.0122C32.9933 45.1066 33.1348 45.1066 33.2764 45.1066C33.6067 45.1066 33.9371 44.9178 34.1259 44.5875C34.3618 44.1156 34.173 43.5493 33.7483 43.3133C32.5213 42.6526 31.6247 40.8121 31.6247 38.9245C31.6247 37.32 32.8989 36.0458 34.5034 36.0458C35.0225 36.0458 35.4472 36.1402 35.872 36.3761C36.0135 36.4233 36.1079 36.4705 36.2495 36.4705C36.0135 37.1784 35.872 37.9334 35.872 38.7357C35.872 41.4256 36.7686 44.0684 38.1843 45.9088C35.3528 46.6167 32.8517 47.5606 31.2 50.1561H26.9999ZM72.9647 68.7496C72.8703 68.844 72.6815 69.0328 72.3512 69.0328H65.9803H64.3758H36.0607C35.7304 69.0328 35.5416 68.844 35.4472 68.7496C35.3057 68.5609 35.2585 68.2777 35.3057 68.089L37.2877 61.199C38.2315 57.9427 40.8271 55.3944 44.1305 54.5449L44.6968 54.4034C44.8384 54.3562 45.0743 54.4506 45.2159 54.5921C47.8115 57.5652 51.0205 57.8012 54.1352 57.8012C57.2498 57.8012 60.4588 57.5652 63.0544 54.5921C63.196 54.4506 63.3847 54.3562 63.6207 54.4034L64.187 54.5449C67.4432 55.3944 70.086 57.9427 71.0298 61.199L71.8792 64.1249C71.9264 64.2664 71.9736 64.3608 72.068 64.4552L73.1062 68.0418C73.1534 68.2777 73.1062 68.5609 72.9647 68.7496Z" fill="url(#paint1_linear)"/>
</g>
<defs>
<linearGradient id="paint0_linear" x1="0" y1="100" x2="100" y2="0" gradientUnits="userSpaceOnUse">
<stop stop-color="#FE5000"/>
<stop offset="1" stop-color="#FE9800"/>
</linearGradient>
<linearGradient id="paint1_linear" x1="25" y1="70.9205" x2="68.4651" y2="21.3494" gradientUnits="userSpaceOnUse">
<stop stop-color="#FE5000"/>
<stop offset="1" stop-color="#FE9800"/>
</linearGradient>
<clipPath id="clip0">
<rect width="50" height="50" fill="white" transform="translate(25 24)"/>
</clipPath>
</defs>
</svg>
