<svg width="100" height="100" viewBox="0 0 100 100" fill="none" xmlns="http://www.w3.org/2000/svg">
<path d="M67.7953 39.5771H32.2052C31.6991 39.5771 31.2889 39.9873 31.2889 40.4934C31.2889 40.9995 31.6991 41.4097 32.2052 41.4097H67.7953C68.3014 41.4097 68.7115 40.9995 68.7115 40.4934C68.7115 39.9873 68.3014 39.5771 67.7953 39.5771Z" fill="url(#paint0_linear)"/>
<path d="M67.7953 49.554H32.2052C31.6991 49.554 31.2889 49.9641 31.2889 50.4702C31.2889 50.9762 31.6991 51.3865 32.2052 51.3865H67.7953C68.3014 51.3865 68.7115 50.9763 68.7115 50.4702C68.7115 49.9641 68.3014 49.554 67.7953 49.554Z" fill="url(#paint1_linear)"/>
<path d="M56.1273 56.0286H43.8732C43.3671 56.0286 42.9569 56.4387 42.9569 56.9448C42.9569 57.4508 43.3671 57.8611 43.8732 57.8611H56.1273C56.6334 57.8611 57.0436 57.4509 57.0436 56.9448C57.0436 56.4387 56.6334 56.0286 56.1273 56.0286Z" fill="url(#paint2_linear)"/>
<path d="M67.7952 44.5449H41.248C40.7419 44.5449 40.3318 44.9551 40.3318 45.4612C40.3318 45.9672 40.7419 46.3774 41.248 46.3774H67.7952C68.3013 46.3774 68.7114 45.9673 68.7114 45.4612C68.7114 44.9551 68.3013 44.5449 67.7952 44.5449Z" fill="url(#paint3_linear)"/>
<path d="M36.9852 44.5449H32.2052C31.6991 44.5449 31.2889 44.9551 31.2889 45.4612C31.2889 45.9673 31.6991 46.3774 32.2052 46.3774H36.9852C37.4913 46.3774 37.9015 45.9673 37.9015 45.4612C37.9015 44.9552 37.4913 44.5449 36.9852 44.5449Z" fill="url(#paint4_linear)"/>
<path d="M78.7067 28.75H21.2933C19.891 28.75 18.75 29.891 18.75 31.2933V70.047C18.75 71.4495 19.891 72.5903 21.2933 72.5903H59.7513L58.3898 75.4435C58.2148 75.8098 58.2574 76.2394 58.5006 76.5643C58.7439 76.8894 59.1442 77.0509 59.5447 76.9868L62.0796 76.5793L63.4935 78.9003C63.6918 79.226 64.0441 79.4225 64.4226 79.4225C64.441 79.4225 64.4596 79.422 64.4781 79.421C64.8776 79.4008 65.2327 79.1639 65.4052 78.8029L67.8619 73.6548L70.3185 78.8025C70.4906 79.1636 70.8457 79.4006 71.2452 79.4211C71.2639 79.4221 71.2827 79.4226 71.3013 79.4226C71.6798 79.4226 72.0321 79.2261 72.2303 78.9005L73.6443 76.5796L76.1792 76.9872C76.5809 77.0514 76.9805 76.8894 77.2235 76.5642C77.4667 76.239 77.5089 75.8096 77.334 75.4438L75.9724 72.5907H78.7067C80.109 72.5907 81.25 71.4498 81.25 70.0474V31.2933C81.25 29.891 80.109 28.75 78.7067 28.75ZM64.3434 76.7731L63.3843 75.199C63.1533 74.8198 62.7209 74.6204 62.2822 74.6908L60.6545 74.9525L62.3691 71.3597C63.0449 72.0493 64.0077 72.4219 65.0071 72.3278C65.3488 72.295 65.6913 72.3871 65.9712 72.5859C66.0635 72.6516 66.1593 72.7098 66.2563 72.7648L64.3434 76.7731ZM68.0804 71.34C68.0776 71.3403 68.0748 71.3406 68.0719 71.3411C67.933 71.3616 67.7917 71.3616 67.6528 71.3412C67.6493 71.3407 67.6458 71.3403 67.6423 71.3398C67.4271 71.3065 67.2179 71.2241 67.0326 71.0924C66.4784 70.6984 65.8167 70.4889 65.1416 70.4889C65.0393 70.4889 64.9368 70.4938 64.8342 70.5034C64.2277 70.5607 63.6514 70.2275 63.3982 69.6743C63.2858 69.4287 63.1423 69.2014 62.9758 68.9935C62.9685 68.9832 62.9604 68.9734 62.9528 68.9634C62.9435 68.9521 62.9348 68.9406 62.9255 68.9294C62.9149 68.917 62.9038 68.9052 62.8925 68.8933C62.5895 68.5447 62.2151 68.26 61.7887 68.0649C61.2354 67.8118 60.9022 67.2346 60.9596 66.6288C61.0333 65.8492 60.8242 65.0685 60.3706 64.4304C60.0179 63.9345 60.0179 63.2681 60.3705 62.7721C60.8242 62.134 61.0333 61.3533 60.9596 60.5737C60.9022 59.9679 61.2355 59.3907 61.7887 59.1376C62.5007 58.8118 63.0723 58.2402 63.3981 57.5282C63.6514 56.9749 64.2297 56.6416 64.8342 56.6991C65.6146 56.7727 66.3947 56.5636 67.0327 56.11C67.5288 55.7574 68.1952 55.7574 68.691 56.11C69.3292 56.5636 70.1094 56.7722 70.8895 56.6991C71.4958 56.6415 72.0726 56.975 72.3258 57.5282C72.6516 58.2402 73.2231 58.8118 73.9351 59.1375C74.4884 59.3907 74.8217 59.9679 74.7643 60.5736C74.6906 61.3533 74.8997 62.134 75.3533 62.772C75.7059 63.2679 75.7059 63.9343 75.3533 64.4303C74.8997 65.0685 74.6906 65.8492 74.7643 66.6287C74.8217 67.2345 74.4884 67.8116 73.9349 68.0649C73.5095 68.2596 73.136 68.5436 72.8334 68.8911C72.8209 68.9041 72.8087 68.9171 72.7972 68.9307C72.7893 68.9402 72.7819 68.9501 72.7739 68.9597C72.7648 68.9714 72.7555 68.9829 72.7469 68.995C72.5809 69.2025 72.4379 69.4293 72.3258 69.6743C72.0725 70.2275 71.4954 70.5609 70.8895 70.5034C70.1107 70.4301 69.3295 70.6388 68.691 71.0924C68.5055 71.2242 68.296 71.3068 68.0804 71.34ZM73.4415 74.6907C73.0027 74.6205 72.5706 74.8198 72.3395 75.1991L71.3805 76.7732L69.4675 72.7648C69.5646 72.7098 69.6603 72.6516 69.7527 72.5859C70.0327 72.387 70.3755 72.2947 70.7168 72.3276C71.7166 72.4219 72.6791 72.0493 73.3549 71.3597L75.0693 74.9524L73.4415 74.6907ZM79.4176 70.0471C79.4176 70.4391 79.0988 70.7581 78.7067 70.7581H75.0979L74.6255 69.7681C74.6493 69.7555 74.673 69.7423 74.6976 69.7311C75.9594 69.1536 76.7192 67.8374 76.5885 66.4561C76.5562 66.1143 76.6478 65.7719 76.8468 65.4919C77.6508 64.361 77.6508 62.8412 76.8467 61.7102C76.6478 61.4304 76.5562 61.0881 76.5885 60.7462C76.7192 59.3649 75.9594 58.0487 74.6975 57.4712C74.3854 57.3282 74.1348 57.0776 73.9918 56.7655C73.4144 55.5037 72.0977 54.744 70.7167 54.8746C70.3746 54.9072 70.0325 54.8153 69.7527 54.6163C68.6217 53.8124 67.1018 53.8123 65.9709 54.6163C65.691 54.8153 65.3479 54.9072 65.007 54.8745C63.6239 54.7444 62.3092 55.5037 61.7319 56.7654C61.589 57.0776 61.3384 57.3281 61.0261 57.4711C59.7644 58.0486 59.0045 59.3646 59.1353 60.7461C59.1676 61.088 59.0759 61.4303 58.877 61.7102C58.073 62.8412 58.073 64.361 58.877 65.4918C59.0759 65.7716 59.1676 66.114 59.1353 66.4559C59.0045 67.8374 59.7644 69.1536 61.0261 69.731C61.0508 69.7422 61.0743 69.7554 61.0981 69.7679L60.6257 70.7581H21.2933C20.9014 70.7581 20.5824 70.4392 20.5824 70.0471V31.2933C20.5824 30.9014 20.9012 30.5824 21.2933 30.5824H78.7067C79.0986 30.5824 79.4176 30.9014 79.4176 31.2933V70.0471Z" fill="url(#paint5_linear)"/>
<path d="M67.795 57.9084C64.6561 57.9084 62.1024 60.4622 62.1024 63.601C62.1024 66.7399 64.6561 69.2936 67.795 69.2936C70.9339 69.2936 73.4875 66.7397 73.4875 63.601C73.4875 60.462 70.9339 57.9084 67.795 57.9084ZM67.795 67.4611C65.6664 67.4611 63.9348 65.7294 63.9348 63.6008C63.9348 61.4724 65.6664 59.7407 67.795 59.7407C69.9234 59.7407 71.6551 61.4724 71.6551 63.6008C71.6551 65.7294 69.9234 67.4611 67.795 67.4611Z" fill="url(#paint6_linear)"/>
<circle cx="50" cy="50" r="49.5" stroke="url(#paint7_linear)"/>
<defs>
<linearGradient id="paint0_linear" x1="31.2889" y1="41.4097" x2="31.468" y2="37.7534" gradientUnits="userSpaceOnUse">
<stop stop-color="#FE5000"/>
<stop offset="1" stop-color="#FE9800"/>
</linearGradient>
<linearGradient id="paint1_linear" x1="31.2889" y1="51.3865" x2="31.468" y2="47.7302" gradientUnits="userSpaceOnUse">
<stop stop-color="#FE5000"/>
<stop offset="1" stop-color="#FE9800"/>
</linearGradient>
<linearGradient id="paint2_linear" x1="42.9569" y1="57.8611" x2="43.4258" y2="54.257" gradientUnits="userSpaceOnUse">
<stop stop-color="#FE5000"/>
<stop offset="1" stop-color="#FE9800"/>
</linearGradient>
<linearGradient id="paint3_linear" x1="40.3318" y1="46.3774" x2="40.5675" y2="42.7276" gradientUnits="userSpaceOnUse">
<stop stop-color="#FE5000"/>
<stop offset="1" stop-color="#FE9800"/>
</linearGradient>
<linearGradient id="paint4_linear" x1="31.2889" y1="46.3774" x2="32.2322" y2="42.9738" gradientUnits="userSpaceOnUse">
<stop stop-color="#FE5000"/>
<stop offset="1" stop-color="#FE9800"/>
</linearGradient>
<linearGradient id="paint5_linear" x1="18.75" y1="79.4226" x2="68.3277" y2="18.2731" gradientUnits="userSpaceOnUse">
<stop stop-color="#FE5000"/>
<stop offset="1" stop-color="#FE9800"/>
</linearGradient>
<linearGradient id="paint6_linear" x1="62.1024" y1="69.2936" x2="73.4875" y2="57.9084" gradientUnits="userSpaceOnUse">
<stop stop-color="#FE5000"/>
<stop offset="1" stop-color="#FE9800"/>
</linearGradient>
<linearGradient id="paint7_linear" x1="0" y1="100" x2="100" y2="0" gradientUnits="userSpaceOnUse">
<stop stop-color="#FE5000"/>
<stop offset="1" stop-color="#FE9800"/>
</linearGradient>
</defs>
</svg>
