<svg width="100" height="100" viewBox="0 0 100 100" fill="none" xmlns="http://www.w3.org/2000/svg">
<circle cx="50" cy="50" r="49.5" fill="white" stroke="url(#paint0_linear)"/>
<g clip-path="url(#clip0)">
<path d="M65.5 48.1875L57.5 38.1875V30.1875C57.5 27.875 55.625 26 53.3125 26H36.6875C34.375 26 32.5 27.875 32.5 30.1875V60.1875C32.5 62.5 34.375 64.375 36.6875 64.375H44.1875V66.5625C44.1875 71.8125 48.4375 76.0625 53.6875 76.0625H66.6875C67.125 76.0625 67.5 75.6875 67.5 75.25V54C67.5 51.875 66.8125 49.8125 65.5 48.1875ZM53.3125 27.6875C54.6875 27.6875 55.8125 28.8125 55.8125 30.1875V52.0625L52.5 48.5V27.6875H53.3125ZM50.8125 46.6875L49.375 45.1875C49.0625 44.875 48.6875 44.5625 48.3125 44.375V27.6875H50.8125V46.6875ZM34.1875 60.1875V30.1875C34.1875 28.8125 35.3125 27.6875 36.6875 27.6875H46.6875V44C45.6875 44 44.6875 44.375 44 45.0625L43.9375 45.125C42.5 46.5625 42.4375 48.8125 43.6875 50.3125L46.6875 53.875V62.6875H36.6875C35.3125 62.6875 34.1875 61.5625 34.1875 60.1875ZM50.9375 62.6875H48.375V55.875L50.875 58.8125V61.375C50.8125 61.8125 50.875 62.25 50.9375 62.6875ZM65.8125 74.3125H53.625C49.3125 74.3125 45.8125 70.8125 45.8125 66.5V64.3125H51.25C52.1875 67.6875 54.6875 70.5 58.0625 71.75L58.625 70.1875C54.9375 68.8125 52.5 65.25 52.5 61.375V58.5C52.5 58.3125 52.4375 58.125 52.3125 57.9375L44.9375 49.25C44.1875 48.375 44.25 47.125 45.125 46.25C45.5625 45.875 46.125 45.625 46.6875 45.625C47.25 45.625 47.8125 45.875 48.1875 46.3125L59.375 58.1875L60.5625 57.0625L57.4375 53.75V40.875L64.125 49.25C65.1875 50.5625 65.75 52.25 65.75 53.9375V74.3125H65.8125ZM38.3125 41H36.625V30.1875H38.3125V41ZM42.5 36.8125H40.8125V30.1875H42.5V36.8125ZM42.5 53.5H37.5C37.0625 53.5 36.6875 53.875 36.6875 54.3125V59.3125C36.6875 59.75 37.0625 60.125 37.5 60.125H42.5C42.9375 60.125 43.3125 59.75 43.3125 59.3125V54.3125C43.3125 53.875 42.9375 53.5 42.5 53.5ZM41.6875 58.5H38.375V55.1875H41.6875V58.5Z" fill="url(#paint1_linear)"/>
</g>
<defs>
<linearGradient id="paint0_linear" x1="0" y1="100" x2="100" y2="0" gradientUnits="userSpaceOnUse">
<stop stop-color="#FE5000"/>
<stop offset="1" stop-color="#FE9800"/>
</linearGradient>
<linearGradient id="paint1_linear" x1="32.5" y1="76.0625" x2="79.5184" y2="43.1907" gradientUnits="userSpaceOnUse">
<stop stop-color="#FE5000"/>
<stop offset="1" stop-color="#FE9800"/>
</linearGradient>
<clipPath id="clip0">
<rect width="50" height="50" fill="white" transform="translate(25 26)"/>
</clipPath>
</defs>
</svg>
