<svg width="100" height="100" viewBox="0 0 100 100" fill="none" xmlns="http://www.w3.org/2000/svg">
<path d="M71.77 25H28.229C25.0712 25 22.5 27.5712 22.5 30.7291V69.6868C22.5 72.8447 25.0712 75.4159 28.229 75.4159H55.7286C56.361 75.4159 56.8744 74.9025 56.8744 74.27C56.8744 73.6375 56.361 73.1242 55.7286 73.1242H28.229C26.3338 73.1242 24.7916 71.582 24.7916 69.6867V36.4582H75.2074V60.5203C75.2074 61.1528 75.7207 61.6661 76.3532 61.6661C76.9857 61.6661 77.4991 61.1528 77.4991 60.5203V30.7291C77.4991 27.5712 74.9278 25 71.77 25ZM75.2075 34.1666H24.7916V30.7291C24.7916 28.8339 26.3338 27.2917 28.229 27.2917H71.7699C73.6651 27.2917 75.2074 28.8339 75.2074 30.7291V34.1666H75.2075Z" fill="url(#paint0_linear)"/>
<path d="M28.229 31.875C28.8619 31.875 29.3749 31.3619 29.3749 30.7291C29.3749 30.0963 28.8619 29.5833 28.229 29.5833C27.5962 29.5833 27.0832 30.0963 27.0832 30.7291C27.0832 31.3619 27.5962 31.875 28.229 31.875Z" fill="url(#paint1_linear)"/>
<path d="M32.8123 31.875C33.4451 31.875 33.9581 31.3619 33.9581 30.7291C33.9581 30.0963 33.4451 29.5833 32.8123 29.5833C32.1795 29.5833 31.6664 30.0963 31.6664 30.7291C31.6664 31.3619 32.1795 31.875 32.8123 31.875Z" fill="url(#paint2_linear)"/>
<path d="M37.3956 31.875C38.0284 31.875 38.5415 31.3619 38.5415 30.7291C38.5415 30.0963 38.0284 29.5833 37.3956 29.5833C36.7628 29.5833 36.2498 30.0963 36.2498 30.7291C36.2498 31.3619 36.7628 31.875 37.3956 31.875Z" fill="url(#paint3_linear)"/>
<path d="M77.1644 66.5839L61.123 50.5426C60.7953 50.2172 60.3049 50.1186 59.8741 50.2951C59.4456 50.4716 59.166 50.8909 59.166 51.3538V74.2701C59.166 74.7329 59.4456 75.1523 59.8741 75.3265C60.3049 75.5075 60.793 75.409 61.123 75.079L64.5949 71.6072L67.4067 77.0842C67.5464 77.3592 67.7917 77.5632 68.0827 77.6549C68.1949 77.6892 68.3118 77.7076 68.4264 77.7076C68.612 77.7076 68.7954 77.6617 68.9649 77.5724L73.4542 75.1868C74.0042 74.8958 74.222 74.2152 73.9377 73.6583L71.3436 68.5411H76.3532C76.816 68.5411 77.2354 68.2615 77.4119 67.833C77.5907 67.4043 77.4921 66.9117 77.1644 66.5839ZM69.4783 66.2493C69.0795 66.2493 68.7106 66.4556 68.5021 66.7947C68.2935 67.1338 68.2752 67.5578 68.4562 67.913L71.3849 73.6926L68.9145 75.0057L65.9148 69.1643C65.7476 68.8389 65.4359 68.612 65.0738 68.5547C65.0142 68.5455 64.9547 68.5409 64.8951 68.5409C64.5949 68.5409 64.3016 68.66 64.0839 68.8778L61.4577 71.504V54.1198L73.5872 66.2493H69.4783Z" fill="url(#paint4_linear)"/>
<circle cx="50" cy="50" r="49.5" stroke="url(#paint5_linear)"/>
<defs>
<linearGradient id="paint0_linear" x1="22.5" y1="75.4159" x2="72.7256" y2="20.6244" gradientUnits="userSpaceOnUse">
<stop stop-color="#FE5000"/>
<stop offset="1" stop-color="#FE9800"/>
</linearGradient>
<linearGradient id="paint1_linear" x1="27.0832" y1="31.875" x2="29.3749" y2="29.5833" gradientUnits="userSpaceOnUse">
<stop stop-color="#FE5000"/>
<stop offset="1" stop-color="#FE9800"/>
</linearGradient>
<linearGradient id="paint2_linear" x1="31.6664" y1="31.875" x2="33.9581" y2="29.5833" gradientUnits="userSpaceOnUse">
<stop stop-color="#FE5000"/>
<stop offset="1" stop-color="#FE9800"/>
</linearGradient>
<linearGradient id="paint3_linear" x1="36.2498" y1="31.875" x2="38.5415" y2="29.5833" gradientUnits="userSpaceOnUse">
<stop stop-color="#FE5000"/>
<stop offset="1" stop-color="#FE9800"/>
</linearGradient>
<linearGradient id="paint4_linear" x1="59.166" y1="77.7076" x2="84.5505" y2="60.7834" gradientUnits="userSpaceOnUse">
<stop stop-color="#FE5000"/>
<stop offset="1" stop-color="#FE9800"/>
</linearGradient>
<linearGradient id="paint5_linear" x1="0" y1="100" x2="100" y2="0" gradientUnits="userSpaceOnUse">
<stop stop-color="#FE5000"/>
<stop offset="1" stop-color="#FE9800"/>
</linearGradient>
</defs>
</svg>
