<svg width="100" height="100" viewBox="0 0 100 100" fill="none" xmlns="http://www.w3.org/2000/svg">
<path d="M60.75 42.3333H36.7917C36.2627 42.3333 35.8334 42.7626 35.8334 43.2916C35.8334 43.8206 36.2627 44.2499 36.7917 44.2499H60.75C61.279 44.2499 61.7084 43.8206 61.7084 43.2916C61.7084 42.7626 61.279 42.3333 60.75 42.3333Z" fill="url(#paint0_linear)"/>
<path d="M36.7917 36.5837H46.375C46.904 36.5837 47.3334 36.1543 47.3334 35.6253C47.3334 35.0963 46.904 34.667 46.375 34.667H36.7917C36.2627 34.667 35.8334 35.0963 35.8334 35.6253C35.8334 36.1543 36.2627 36.5837 36.7917 36.5837Z" fill="url(#paint1_linear)"/>
<path d="M60.75 50H36.7917C36.2627 50 35.8334 50.4293 35.8334 50.9583C35.8334 51.4873 36.2627 51.9167 36.7917 51.9167H60.75C61.279 51.9167 61.7084 51.4873 61.7084 50.9583C61.7084 50.4293 61.279 50 60.75 50Z" fill="url(#paint2_linear)"/>
<path d="M53.0834 57.6667H36.7917C36.2627 57.6667 35.8334 58.0961 35.8334 58.6251C35.8334 59.1541 36.2627 59.5834 36.7917 59.5834H53.0834C53.6124 59.5834 54.0417 59.1541 54.0417 58.6251C54.0417 58.0961 53.6124 57.6667 53.0834 57.6667Z" fill="url(#paint3_linear)"/>
<path d="M50.2084 67.2497C50.7374 67.2497 51.1667 66.8203 51.1667 66.2913C51.1667 65.7623 50.7374 65.333 50.2084 65.333H36.7917C36.2627 65.333 35.8334 65.7623 35.8334 66.2913C35.8334 66.8203 36.2627 67.2497 36.7917 67.2497H50.2084Z" fill="url(#paint4_linear)"/>
<path d="M28.1667 23.1667H55.9583V36.5833H69.375V53.8333H71.2917V35.2283L57.3134 21.25H26.25V78.75H54.0417V76.8333H28.1667V23.1667ZM57.875 24.5217L68.0199 34.6667H57.875V24.5217Z" fill="url(#paint5_linear)"/>
<path d="M81.5343 56.8635L78.804 54.1323C77.723 53.0513 75.8389 53.0513 74.7579 54.1323L60.0082 68.881L57.9756 76.3359L57.4782 76.8333C57.1064 77.2051 57.1054 77.805 57.4725 78.1797L57.4677 78.1989L57.4868 78.1941C57.6727 78.3762 57.9142 78.4692 58.1557 78.4692C58.4011 78.4692 58.6464 78.3752 58.8333 78.1884L59.3307 77.691L66.7855 75.6584L81.5343 60.9087C82.0748 60.3682 82.3728 59.6504 82.3728 58.8856C82.3728 58.1209 82.0748 57.4031 81.5343 56.8635ZM62.221 69.3794L72.0372 59.5632L76.1034 63.6294L66.2872 73.4456L62.221 69.3794ZM61.3556 71.2242L64.4414 74.31L60.1989 75.4667L61.3556 71.2242ZM80.1792 59.5536L77.4585 62.2743L73.3923 58.2081L76.113 55.4874C76.4695 55.1309 77.0915 55.1299 77.448 55.4874L80.1792 58.2186C80.3574 58.3969 80.4562 58.6336 80.4562 58.8856C80.4552 59.1377 80.3574 59.3753 80.1792 59.5536Z" fill="url(#paint6_linear)"/>
<circle cx="50" cy="50" r="49.5" stroke="url(#paint7_linear)"/>
<defs>
<linearGradient id="paint0_linear" x1="35.8334" y1="44.2499" x2="36.1158" y2="40.4375" gradientUnits="userSpaceOnUse">
<stop stop-color="#FE5000"/>
<stop offset="1" stop-color="#FE9800"/>
</linearGradient>
<linearGradient id="paint1_linear" x1="35.8334" y1="36.5837" x2="36.455" y2="32.8539" gradientUnits="userSpaceOnUse">
<stop stop-color="#FE5000"/>
<stop offset="1" stop-color="#FE9800"/>
</linearGradient>
<linearGradient id="paint2_linear" x1="35.8334" y1="51.9167" x2="36.1158" y2="48.1043" gradientUnits="userSpaceOnUse">
<stop stop-color="#FE5000"/>
<stop offset="1" stop-color="#FE9800"/>
</linearGradient>
<linearGradient id="paint3_linear" x1="35.8334" y1="59.5834" x2="36.2325" y2="55.7921" gradientUnits="userSpaceOnUse">
<stop stop-color="#FE5000"/>
<stop offset="1" stop-color="#FE9800"/>
</linearGradient>
<linearGradient id="paint4_linear" x1="35.8334" y1="67.2497" x2="36.3052" y2="63.4753" gradientUnits="userSpaceOnUse">
<stop stop-color="#FE5000"/>
<stop offset="1" stop-color="#FE9800"/>
</linearGradient>
<linearGradient id="paint5_linear" x1="26.25" y1="78.75" x2="82.0772" y2="35.0187" gradientUnits="userSpaceOnUse">
<stop stop-color="#FE5000"/>
<stop offset="1" stop-color="#FE9800"/>
</linearGradient>
<linearGradient id="paint6_linear" x1="57.1982" y1="78.4692" x2="82.3458" y2="53.2946" gradientUnits="userSpaceOnUse">
<stop stop-color="#FE5000"/>
<stop offset="1" stop-color="#FE9800"/>
</linearGradient>
<linearGradient id="paint7_linear" x1="0" y1="100" x2="100" y2="0" gradientUnits="userSpaceOnUse">
<stop stop-color="#FE5000"/>
<stop offset="1" stop-color="#FE9800"/>
</linearGradient>
</defs>
</svg>
