<svg width="100" height="100" viewBox="0 0 100 100" fill="none" xmlns="http://www.w3.org/2000/svg">
<circle cx="50" cy="50" r="49.5" fill="white" stroke="url(#paint0_linear)"/>
<g clip-path="url(#clip0)">
<path d="M53.4592 50C53.4592 56.6 52.3792 61.84 50.2192 65.72C48.0992 69.56 44.7992 71.48 40.3192 71.48C35.7991 71.48 32.4391 69.54 30.2391 65.66C28.0391 61.78 26.9391 56.56 26.9391 50C26.9391 43.44 28.0191 38.22 30.1791 34.34C32.3791 30.46 35.7191 28.52 40.1992 28.52C44.6792 28.52 47.9992 30.46 50.1592 34.34C52.3592 38.22 53.4592 43.44 53.4592 50ZM40.3192 68.54C46.8792 68.54 50.1592 62.36 50.1592 50C50.1592 37.64 46.8392 31.46 40.1992 31.46C33.5591 31.46 30.2391 37.64 30.2391 50C30.2391 62.36 33.5991 68.54 40.3192 68.54ZM62.2711 59.588H58.2391V58.04H62.2711V45.8C63.2551 45.8 64.2751 45.788 65.3311 45.764C66.3871 45.74 67.4191 45.728 68.4271 45.728C74.4031 45.728 77.3911 48.044 77.3911 52.676C77.3911 54.812 76.6231 56.504 75.0871 57.752C73.5751 58.976 71.3551 59.588 68.4271 59.588H64.2511V64.016H70.7671V65.564H64.2511V71H62.2711V65.564H58.2391V64.016H62.2711V59.588ZM68.6071 47.6C67.8151 47.6 66.3631 47.624 64.2511 47.672V58.04H68.3551C70.6351 58.04 72.3631 57.596 73.5391 56.708C74.7151 55.796 75.3031 54.5 75.3031 52.82C75.3031 49.34 73.0711 47.6 68.6071 47.6Z" fill="url(#paint1_linear)"/>
</g>
<defs>
<linearGradient id="paint0_linear" x1="0" y1="100" x2="100" y2="0" gradientUnits="userSpaceOnUse">
<stop stop-color="#FE5000"/>
<stop offset="1" stop-color="#FE9800"/>
</linearGradient>
<linearGradient id="paint1_linear" x1="23.0001" y1="66" x2="40.3794" y2="25.4482" gradientUnits="userSpaceOnUse">
<stop stop-color="#FE5000"/>
<stop offset="1" stop-color="#FE9800"/>
</linearGradient>
<clipPath id="clip0">
<rect width="52" height="44" fill="white" transform="translate(26.0001 27.9999)"/>
</clipPath>
</defs>
</svg>
