<svg width="100" height="100" viewBox="0 0 100 100" fill="none" xmlns="http://www.w3.org/2000/svg">
<circle cx="50" cy="50" r="49.5" fill="white" stroke="url(#paint0_linear)"/>
<g clip-path="url(#clip0)">
<path d="M74.2676 37.003H67.8906L65.1562 31.0738C64.9902 30.71 64.541 30.5428 64.1797 30.71L61.5039 31.9587L53.3984 26.1279C53.0762 25.8919 52.6074 25.9705 52.373 26.3048L44.7949 37.003H25.7324C25.3223 37.003 25 37.3373 25 37.7404V64.2596C25 64.6628 25.332 64.9971 25.7324 64.9971H32.1094L34.8438 70.9263C35.0098 71.2901 35.4492 71.4573 35.8203 71.2901L38.4961 70.0413L46.6016 75.8722C46.9238 76.1082 47.3926 76.0295 47.627 75.6952L55.2051 64.9971H74.2578C74.668 64.9971 74.9902 64.6628 74.9902 64.2596V37.7404C75 37.3373 74.668 37.003 74.2676 37.003ZM64.1309 32.3619L66.2695 37.003H54.1895L64.1309 32.3619ZM53.1445 27.7699L59.9805 32.6765L50.7129 37.003H46.6016L53.1445 27.7699ZM42.1875 58.3501V63.4337C42.1875 63.4632 42.1875 63.4927 42.1973 63.5222H37.793C37.793 63.4927 37.8027 63.4632 37.8027 63.4337V58.3501V56.9735V38.4779H42.1973V56.9735V58.3501H42.1875ZM26.4648 63.5222V38.4779H36.4258V56.9735H32.0312C31.6504 56.9735 31.3477 57.2783 31.3477 57.6618C31.3477 58.0453 31.6504 58.3501 32.0312 58.3501H36.4258V63.4337C36.4258 63.4632 36.4258 63.4927 36.4355 63.5222H26.4648ZM35.8691 69.6382L33.7305 64.9971H45.8105L35.8691 69.6382ZM46.8555 74.24L40.0195 69.3334L49.2871 65.0069H53.3984L46.8555 74.24ZM73.5352 63.5222H43.5547C43.5547 63.4927 43.5645 63.4632 43.5645 63.4337V58.3501H56.0645C56.4453 58.3501 56.748 58.0453 56.748 57.6618C56.748 57.2783 56.4453 56.9735 56.0645 56.9735H43.5547V38.4779H45.166H67.4121H73.5352V63.5222ZM61.0449 47.1898H62.3242V42.7257H65.9961C68.0859 42.7257 69.2578 43.7876 69.2578 45.6166C69.2578 47.4553 68.0859 48.5467 65.9961 48.5467H63.8867V49.4514H66.6992V50.3068H63.8867V52.2144H62.3242V50.3068H61.0449V49.4514H62.3242V48.5467H61.0449V47.1898ZM65.7715 47.1898C67.168 47.1898 67.6953 46.59 67.6953 45.6166C67.6953 44.6431 67.168 44.0728 65.7715 44.0728H63.8867V47.1898H65.7715Z" fill="url(#paint1_linear)"/>
</g>
<defs>
<linearGradient id="paint0_linear" x1="0" y1="100" x2="100" y2="0" gradientUnits="userSpaceOnUse">
<stop stop-color="#FE5000"/>
<stop offset="1" stop-color="#FE9800"/>
</linearGradient>
<linearGradient id="paint1_linear" x1="25" y1="76.0083" x2="75.0164" y2="26.0178" gradientUnits="userSpaceOnUse">
<stop stop-color="#FE5000"/>
<stop offset="1" stop-color="#FE9800"/>
</linearGradient>
<clipPath id="clip0">
<rect width="50" height="50" fill="white" transform="translate(25 26)"/>
</clipPath>
</defs>
</svg>
