<svg width="20" height="20" viewBox="0 0 20 20" fill="none" xmlns="http://www.w3.org/2000/svg">
<g clip-path="url(#clip0)">
<path d="M15 15.998C15.5304 15.998 16.0391 16.2088 16.4142 16.5838C16.7893 16.9589 17 17.4676 17 17.998C17 18.5285 16.7893 19.0372 16.4142 19.4123C16.0391 19.7873 15.5304 19.998 15 19.998C14.7378 19.9981 14.4782 19.9462 14.2361 19.8456C13.9941 19.745 13.7742 19.5975 13.5893 19.4117C13.4044 19.2258 13.258 19.0053 13.1586 18.7627C13.0592 18.5201 13.0087 18.2602 13.01 17.998C13.01 16.893 13.894 15.998 15 15.998ZM-1 -0.00195312H2.265L3.212 1.99805H18C18.1738 1.99808 18.3445 2.04339 18.4955 2.12951C18.6464 2.21564 18.7723 2.33961 18.8607 2.4892C18.9491 2.63879 18.997 2.80884 18.9997 2.98259C19.0024 3.15634 18.9598 3.32779 18.876 3.48005L15.3 9.97005C15.1266 10.2818 14.873 10.5415 14.5655 10.7223C14.258 10.903 13.9077 10.9982 13.551 10.998H6.101L5.204 12.628L5.172 12.748C5.172 12.888 5.284 12.998 5.422 12.998H17V14.998H5C4.65278 14.9981 4.31151 14.9078 4.00979 14.736C3.70807 14.5641 3.45627 14.3167 3.27919 14.0181C3.10211 13.7194 3.00583 13.3797 2.99984 13.0326C2.99384 12.6854 3.07833 12.3427 3.245 12.038L4.597 9.58505L1 1.99805H-1V-0.00195312ZM5 15.998C5.53043 15.998 6.03914 16.2088 6.41421 16.5838C6.78929 16.9589 7 17.4676 7 17.998C7 18.5285 6.78929 19.0372 6.41421 19.4123C6.03914 19.7873 5.53043 19.998 5 19.998C4.73783 19.9981 4.47824 19.9462 4.23614 19.8456C3.99405 19.745 3.77423 19.5975 3.58931 19.4117C3.40439 19.2258 3.25802 19.0053 3.1586 18.7627C3.05918 18.5201 3.00868 18.2602 3.01 17.998C3.01 16.893 3.894 15.998 5 15.998ZM14 9.00005L16.778 4.00005H4.138L6.5 9.00005H14Z" fill="#555555"/>
</g>
<defs>
<clipPath id="clip0">
<rect width="20" height="20" fill="white"/>
</clipPath>
</defs>
</svg>
